<mxfile host="Electron" modified="2024-07-25T07:16:23.961Z" agent="Mozilla/5.0 (X11; Linux x86_64) AppleWebKit/537.36 (KHTML, like Gecko) draw.io/24.5.3 Chrome/124.0.6367.207 Electron/30.0.6 Safari/537.36" etag="IDraxMRQbCNvAvc9m9XS" version="24.5.3" type="device">
  <diagram name="Page-1" id="Pdj6rM4kLtLGiITYZ5Xm">
    <mxGraphModel dx="1384" dy="843" grid="1" gridSize="10" guides="1" tooltips="1" connect="1" arrows="1" fold="1" page="1" pageScale="1" pageWidth="850" pageHeight="1100" math="0" shadow="0">
      <root>
        <mxCell id="0" />
        <mxCell id="1" parent="0" />
        <mxCell id="EJPh7k1TVAfeyfa4BsFC-1" value="" style="endArrow=classic;html=1;rounded=0;strokeWidth=2;" parent="1" edge="1">
          <mxGeometry width="50" height="50" relative="1" as="geometry">
            <mxPoint x="360" y="600" as="sourcePoint" />
            <mxPoint x="760" y="600" as="targetPoint" />
          </mxGeometry>
        </mxCell>
        <mxCell id="EJPh7k1TVAfeyfa4BsFC-2" value="" style="endArrow=classic;html=1;rounded=0;strokeWidth=2;" parent="1" edge="1">
          <mxGeometry width="50" height="50" relative="1" as="geometry">
            <mxPoint x="360" y="600" as="sourcePoint" />
            <mxPoint x="360" y="200" as="targetPoint" />
          </mxGeometry>
        </mxCell>
        <mxCell id="EJPh7k1TVAfeyfa4BsFC-3" value="Reusability of system dynamics model" style="text;html=1;align=center;verticalAlign=middle;whiteSpace=wrap;rounded=0;fontStyle=1" parent="1" vertex="1">
          <mxGeometry x="310" y="150" width="100" height="40" as="geometry" />
        </mxCell>
        <mxCell id="EJPh7k1TVAfeyfa4BsFC-4" value="Dataset Size&lt;div&gt;and&amp;nbsp;&lt;/div&gt;&lt;div&gt;Total number of parameters&lt;/div&gt;" style="text;html=1;align=center;verticalAlign=middle;whiteSpace=wrap;rounded=0;fontStyle=1" parent="1" vertex="1">
          <mxGeometry x="760" y="570" width="140" height="60" as="geometry" />
        </mxCell>
        <mxCell id="EJPh7k1TVAfeyfa4BsFC-5" value="" style="endArrow=none;html=1;rounded=0;" parent="1" edge="1">
          <mxGeometry width="50" height="50" relative="1" as="geometry">
            <mxPoint x="400" y="240" as="sourcePoint" />
            <mxPoint x="400" y="240" as="targetPoint" />
          </mxGeometry>
        </mxCell>
        <mxCell id="EJPh7k1TVAfeyfa4BsFC-11" value="&lt;h1 style=&quot;margin-top: 0px;&quot;&gt;Scalability vs Modeling Complexity&lt;/h1&gt;" style="text;html=1;whiteSpace=wrap;overflow=hidden;rounded=0;" parent="1" vertex="1">
          <mxGeometry x="360" y="650" width="520" height="50" as="geometry" />
        </mxCell>
        <mxCell id="EJPh7k1TVAfeyfa4BsFC-13" value="Custom twin&lt;div&gt;Single policy&lt;/div&gt;" style="text;html=1;align=center;verticalAlign=middle;whiteSpace=wrap;rounded=0;strokeColor=default;" parent="1" vertex="1">
          <mxGeometry x="370" y="410" width="130" height="30" as="geometry" />
        </mxCell>
        <mxCell id="EJPh7k1TVAfeyfa4BsFC-14" value="" style="endArrow=none;html=1;rounded=0;entryX=0.5;entryY=1;entryDx=0;entryDy=0;exitX=0.5;exitY=0;exitDx=0;exitDy=0;dashed=1;" parent="1" source="EJPh7k1TVAfeyfa4BsFC-30" target="EJPh7k1TVAfeyfa4BsFC-13" edge="1">
          <mxGeometry width="50" height="50" relative="1" as="geometry">
            <mxPoint x="560" y="470" as="sourcePoint" />
            <mxPoint x="610" y="420" as="targetPoint" />
          </mxGeometry>
        </mxCell>
        <mxCell id="EJPh7k1TVAfeyfa4BsFC-15" value="&lt;div&gt;Transfer learning,&lt;/div&gt;Twin templates,&lt;div&gt;&lt;div&gt;Zone or system-level reusable agents&lt;/div&gt;&lt;/div&gt;" style="text;html=1;align=center;verticalAlign=middle;whiteSpace=wrap;rounded=0;strokeColor=default;" parent="1" vertex="1">
          <mxGeometry x="535" y="440" width="205" height="60" as="geometry" />
        </mxCell>
        <mxCell id="EJPh7k1TVAfeyfa4BsFC-16" value="&lt;div&gt;&lt;span style=&quot;background-color: initial;&quot;&gt;Agents pools, Large Decision Models, ...&lt;/span&gt;&lt;br&gt;&lt;/div&gt;" style="text;html=1;align=center;verticalAlign=middle;whiteSpace=wrap;rounded=0;strokeColor=default;" parent="1" vertex="1">
          <mxGeometry x="710" y="280" width="170" height="60" as="geometry" />
        </mxCell>
        <mxCell id="EJPh7k1TVAfeyfa4BsFC-17" value="High" style="text;html=1;align=center;verticalAlign=middle;whiteSpace=wrap;rounded=0;fontStyle=1" parent="1" vertex="1">
          <mxGeometry x="300" y="210" width="60" height="30" as="geometry" />
        </mxCell>
        <mxCell id="EJPh7k1TVAfeyfa4BsFC-18" value="Low" style="text;html=1;align=center;verticalAlign=middle;whiteSpace=wrap;rounded=0;fontStyle=1" parent="1" vertex="1">
          <mxGeometry x="300" y="560" width="60" height="30" as="geometry" />
        </mxCell>
        <mxCell id="EJPh7k1TVAfeyfa4BsFC-19" value="Small" style="text;html=1;align=center;verticalAlign=middle;whiteSpace=wrap;rounded=0;fontStyle=1" parent="1" vertex="1">
          <mxGeometry x="360" y="610" width="60" height="30" as="geometry" />
        </mxCell>
        <mxCell id="EJPh7k1TVAfeyfa4BsFC-20" value="Large" style="text;html=1;align=center;verticalAlign=middle;whiteSpace=wrap;rounded=0;fontStyle=1" parent="1" vertex="1">
          <mxGeometry x="700" y="610" width="60" height="30" as="geometry" />
        </mxCell>
        <mxCell id="EJPh7k1TVAfeyfa4BsFC-21" value="" style="endArrow=none;html=1;rounded=0;entryX=0.5;entryY=0;entryDx=0;entryDy=0;exitX=1;exitY=1;exitDx=0;exitDy=0;dashed=1;" parent="1" source="EJPh7k1TVAfeyfa4BsFC-9" target="EJPh7k1TVAfeyfa4BsFC-15" edge="1">
          <mxGeometry width="50" height="50" relative="1" as="geometry">
            <mxPoint x="560" y="480" as="sourcePoint" />
            <mxPoint x="610" y="430" as="targetPoint" />
          </mxGeometry>
        </mxCell>
        <mxCell id="EJPh7k1TVAfeyfa4BsFC-22" value="" style="endArrow=none;html=1;rounded=0;entryX=0.5;entryY=0;entryDx=0;entryDy=0;exitX=1;exitY=1;exitDx=0;exitDy=0;dashed=1;" parent="1" source="EJPh7k1TVAfeyfa4BsFC-33" target="EJPh7k1TVAfeyfa4BsFC-16" edge="1">
          <mxGeometry width="50" height="50" relative="1" as="geometry">
            <mxPoint x="737.0710678118653" y="557.9289321881347" as="sourcePoint" />
            <mxPoint x="610" y="430" as="targetPoint" />
          </mxGeometry>
        </mxCell>
        <mxCell id="EJPh7k1TVAfeyfa4BsFC-23" value="Off-the-shelf product" style="text;html=1;align=center;verticalAlign=middle;whiteSpace=wrap;rounded=0;fillColor=#d5e8d4;strokeColor=#82b366;" parent="1" vertex="1">
          <mxGeometry x="640" y="175" width="90" height="35" as="geometry" />
        </mxCell>
        <mxCell id="EJPh7k1TVAfeyfa4BsFC-24" value="Custom, single shot solution" style="text;html=1;align=center;verticalAlign=middle;whiteSpace=wrap;rounded=0;fillColor=#FF9999;strokeColor=#6c8ebf;direction=south;" parent="1" vertex="1">
          <mxGeometry x="440" y="535" width="70" height="55" as="geometry" />
        </mxCell>
        <mxCell id="EJPh7k1TVAfeyfa4BsFC-28" value="Scalable" style="text;html=1;align=center;verticalAlign=middle;whiteSpace=wrap;rounded=0;rotation=45;fontStyle=1" parent="1" vertex="1">
          <mxGeometry x="520" y="310" width="60" height="30" as="geometry" />
        </mxCell>
        <mxCell id="EJPh7k1TVAfeyfa4BsFC-29" value="Not scalable" style="text;html=1;align=center;verticalAlign=middle;whiteSpace=wrap;rounded=0;rotation=45;fontStyle=1" parent="1" vertex="1">
          <mxGeometry x="475" y="350" width="75" height="30" as="geometry" />
        </mxCell>
        <mxCell id="EJPh7k1TVAfeyfa4BsFC-30" value="" style="ellipse;whiteSpace=wrap;html=1;aspect=fixed;" parent="1" vertex="1">
          <mxGeometry x="370" y="570" width="20" height="20" as="geometry" />
        </mxCell>
        <mxCell id="EJPh7k1TVAfeyfa4BsFC-32" value="" style="endArrow=none;html=1;strokeWidth=1;rounded=0;fillColor=#f8cecc;strokeColor=#000000;" parent="1" source="EJPh7k1TVAfeyfa4BsFC-30" target="EJPh7k1TVAfeyfa4BsFC-9" edge="1">
          <mxGeometry width="50" height="50" relative="1" as="geometry">
            <mxPoint x="387" y="573" as="sourcePoint" />
            <mxPoint x="760" y="200" as="targetPoint" />
          </mxGeometry>
        </mxCell>
        <mxCell id="EJPh7k1TVAfeyfa4BsFC-9" value="" style="ellipse;whiteSpace=wrap;html=1;aspect=fixed;" parent="1" vertex="1">
          <mxGeometry x="565" y="370" width="20" height="20" as="geometry" />
        </mxCell>
        <mxCell id="EJPh7k1TVAfeyfa4BsFC-34" value="" style="endArrow=none;html=1;strokeWidth=1;rounded=0;fillColor=#f8cecc;strokeColor=#000000;" parent="1" source="EJPh7k1TVAfeyfa4BsFC-9" target="EJPh7k1TVAfeyfa4BsFC-33" edge="1">
          <mxGeometry width="50" height="50" relative="1" as="geometry">
            <mxPoint x="582" y="373" as="sourcePoint" />
            <mxPoint x="760" y="200" as="targetPoint" />
          </mxGeometry>
        </mxCell>
        <mxCell id="EJPh7k1TVAfeyfa4BsFC-33" value="" style="ellipse;whiteSpace=wrap;html=1;aspect=fixed;" parent="1" vertex="1">
          <mxGeometry x="740" y="200" width="20" height="20" as="geometry" />
        </mxCell>
        <mxCell id="sVMZjkM75N6sjh-UJ19A-2" value="" style="endArrow=none;dashed=1;html=1;dashPattern=1 3;strokeWidth=3;rounded=0;entryX=0;entryY=0;entryDx=0;entryDy=0;fillColor=#f8cecc;strokeColor=#b85450;" parent="1" target="EJPh7k1TVAfeyfa4BsFC-9" edge="1">
          <mxGeometry width="50" height="50" relative="1" as="geometry">
            <mxPoint x="380" y="200" as="sourcePoint" />
            <mxPoint x="568" y="411" as="targetPoint" />
          </mxGeometry>
        </mxCell>
      </root>
    </mxGraphModel>
  </diagram>
</mxfile>
